<?xml version="1.0" encoding="utf-8" ?>
<svg xmlns="http://www.w3.org/2000/svg" xmlns:xlink="http://www.w3.org/1999/xlink" width="32" height="32" viewBox="0 0 32 32">
	<defs>
		<clipPath id="clipPath9243319220">
			<path transform="matrix(1 0 0 1 0 0)" d="M0 0L32 0L32 32L0 32L0 0Z" fill-rule="nonzero"/>
		</clipPath>
	</defs>
	<g clip-path="url(#clipPath9243319220)">
		<path transform="matrix(1 0 0 1 5 5)" d="M11 1Q6.85786 1 3.92893 3.92893Q1 6.85787 1 11Q1 15.1421 3.92893 18.0711Q6.85786 21 11 21Q15.1421 21 18.0711 18.0711Q21 15.1421 21 11Q21 6.85786 18.0711 3.92893Q15.1421 1 11 1L11 1ZM11 -1Q15.9706 -0.999999 19.4853 2.51472Q23 6.02943 23 11Q23 15.9706 19.4853 19.4853Q15.9706 23 11 23Q6.02944 23 2.51472 19.4853Q-1 15.9706 -1 11Q-1 6.02944 2.51472 2.51472Q6.02943 -1 11 -1L11 -1Z" fill-rule="nonzero" fill="rgb(255, 255, 255)"/>
		<path transform="matrix(1 0 0 1 12.5 9.87453)" d="M-0.63769 1.7737Q-0.853687 2.30359 -0.873994 2.72665C-0.897163 3.20934 -0.524641 3.61942 -0.0419515 3.64259C0.435645 3.66552 0.842163 3.30106 0.873132 2.82579L0.87359 2.82165Q0.877021 2.79238 0.884836 2.75291Q0.914931 2.60089 0.982846 2.43428Q1.21632 1.86151 1.77164 1.41471Q2.42079 0.89176 3.51312 0.875376Q3.93234 0.870008 4.29962 0.933364Q4.61049 0.986989 4.78204 1.06865Q6.125 1.7079 6.125 2.84672Q6.125 3.61606 5.65152 4.17152Q5.43023 4.43112 5.05739 4.71955Q4.79544 4.9222 4.23952 5.29501Q3.2067 5.98765 2.73202 6.87317Q2.3125 7.65578 2.3125 8.62547C2.3125 9.10872 2.70426 9.50047 3.1875 9.50047C3.67074 9.50047 4.0625 9.10872 4.0625 8.62547Q4.0625 8.09525 4.27439 7.69996Q4.54324 7.19842 5.21423 6.74844Q5.81936 6.34262 6.12818 6.10372Q6.64442 5.70435 6.98332 5.30677Q7.875 4.26072 7.875 2.84672Q7.875 1.49096 6.95466 0.499721Q6.39722 -0.100663 5.53421 -0.511454Q4.73804 -0.890456 3.48688 -0.874428Q1.79213 -0.849007 0.674611 0.0512431Q-0.233356 0.781785 -0.63769 1.7737Z" fill-rule="evenodd" fill="rgb(255, 255, 255)"/>
		<path transform="matrix(1 0 0 1 14.375 20.5)" d="M1.25 0C1.94036 0 2.5 0.559644 2.5 1.25C2.5 1.94036 1.94036 2.5 1.25 2.5C0.559644 2.5 0 1.94036 0 1.25C0 0.559644 0.559644 0 1.25 0Z" fill-rule="nonzero" fill="rgb(255, 255, 255)"/>
	</g>
</svg>
