<?xml version="1.0" encoding="utf-8" ?>
<svg xmlns="http://www.w3.org/2000/svg" xmlns:xlink="http://www.w3.org/1999/xlink" width="32" height="32" viewBox="0 0 32 32">
	<defs>
		<clipPath id="clipPath9955145770">
			<path transform="matrix(1 0 0 1 0 0)" d="M0 0L32 0L32 32L0 32L0 0Z" fill-rule="nonzero"/>
		</clipPath>
	</defs>
	<g clip-path="url(#clipPath9955145770)">
		<path transform="matrix(1 0 0 1 2.99993 3)" d="M1.50311 20.4858Q1.48178 20.5636 1.48711 20.6208Q1.48656 20.6149 1.47721 20.5851Q1.44208 20.4731 1.35319 20.3176Q1.33856 20.2932 1.31375 20.2561Q1.28894 20.219 1.26218 20.1832L1.24422 20.1593L1.22772 20.1342Q0.137824 18.4814 -0.43109 16.585Q-1 14.6886 -0.999935 12.7087Q-1.00888 9.91978 0.089972 7.36781Q1.14998 4.90606 3.08897 3.00877Q5.0254 1.11397 7.53934 0.0749888Q10.1404 -1 12.9888 -1Q15.4742 -1 17.7898 -0.172423Q20.0281 0.627494 21.8769 2.11522Q23.7116 3.5916 24.9479 5.57145Q26.2108 7.59395 26.7014 9.90823Q26.8497 10.5989 26.9247 11.3038Q26.9997 12.0087 27.0001 12.7175Q27.0001 15.513 25.937 18.0675Q24.9041 20.5496 23.0154 22.4599Q21.1157 24.3814 18.6367 25.4335Q16.0619 26.5262 13.2132 26.5262Q12.3395 26.5262 11.1773 26.3405Q10.186 26.1821 9.41429 25.9661Q8.41229 25.6857 7.4242 25.3041Q7.34497 25.2737 7.25971 25.2578Q7.17445 25.242 7.08772 25.2419Q6.99213 25.2415 6.90082 25.2599Q6.80952 25.2783 6.72375 25.3146L6.69876 25.3252L2.43324 26.8644L2.09382 25.9237L2.49053 26.8417Q2.3512 26.9019 2.20438 26.9403Q2.05752 26.9788 1.90657 26.9946L1.8532 27.0002L1.79954 27Q1.13161 26.998 0.663239 26.5218Q0.194869 26.0456 0.203906 25.3777L0.20432 25.3471L0.206602 25.3166Q0.21446 25.2116 0.23335 25.108Q0.252245 25.0044 0.281965 24.9034L1.50372 20.4835L1.50311 20.4858ZM3.43141 21.0165L2.20066 25.4678Q2.20081 25.4674 2.2009 25.4668Q2.20099 25.4664 2.20103 25.4659L1.20381 25.3913L2.20372 25.4048Q2.20598 25.2381 2.08912 25.1193Q1.97225 25.0005 1.80559 25L1.80256 26L1.69856 25.0054Q1.69821 25.0055 1.6978 25.0056Q1.69745 25.0057 1.6971 25.0058L1.7254 24.9936L5.99439 23.4531L6.33381 24.3937L5.94388 23.4729Q6.21634 23.3575 6.50641 23.2992Q6.7965 23.2408 7.08991 23.2419Q7.35993 23.2422 7.6254 23.2915Q7.89088 23.3409 8.14468 23.4384Q9.0435 23.7855 9.95334 24.0401Q10.6147 24.2252 11.4929 24.3656Q12.4983 24.5262 13.2132 24.5262Q15.6551 24.5262 17.8553 23.5924Q19.9709 22.6945 21.5932 21.0537Q23.2075 19.4209 24.0905 17.2991Q25.0001 15.1135 25.0001 12.7187Q24.9997 12.1153 24.9359 11.5154Q24.8721 10.9154 24.7449 10.323Q24.3275 8.35394 23.2515 6.63076Q22.1943 4.93774 20.6231 3.67338Q19.0372 2.39725 17.1168 1.71092Q15.1275 1 12.9888 1Q10.5374 1 8.30325 1.92335Q6.14729 2.81438 4.48773 4.43826Q2.83083 6.05953 1.92692 8.15878Q0.992438 10.329 1.00007 12.7088Q1.00001 14.3951 1.48456 16.0103Q1.96912 17.6255 2.89741 19.0333L2.06257 19.5838L2.86295 18.9843Q2.92187 19.0629 2.9765 19.1447Q3.03114 19.2264 3.08944 19.3249Q3.63394 20.2772 3.43202 21.0142L3.43141 21.0165Z" fill-rule="nonzero" fill="rgb(255, 255, 255)"/>
		<path transform="matrix(1 0 0 1 8 14)" d="M2 0C3.10457 0 4 0.89543 4 2C4 3.10457 3.10457 4 2 4C0.89543 4 0 3.10457 0 2C0 0.89543 0.89543 0 2 0Z" fill-rule="nonzero" fill="rgb(255, 255, 255)"/>
		<path transform="matrix(1 0 0 1 14 14)" d="M2 0C3.10457 0 4 0.89543 4 2C4 3.10457 3.10457 4 2 4C0.89543 4 0 3.10457 0 2C0 0.89543 0.89543 0 2 0Z" fill-rule="nonzero" fill="rgb(255, 255, 255)"/>
		<path transform="matrix(1 0 0 1 20 14)" d="M2 0C3.10457 0 4 0.89543 4 2C4 3.10457 3.10457 4 2 4C0.89543 4 0 3.10457 0 2C0 0.89543 0.89543 0 2 0Z" fill-rule="nonzero" fill="rgb(255, 255, 255)"/>
	</g>
</svg>
