<?xml version="1.0" encoding="utf-8" ?>
<svg xmlns="http://www.w3.org/2000/svg" xmlns:xlink="http://www.w3.org/1999/xlink" width="32" height="32" viewBox="0 0 32 32">
	<defs>
		<clipPath id="clipPath2228090059">
			<path transform="matrix(1 0 0 1 0 0)" d="M0 0L32 0L32 32L0 32L0 0Z" fill-rule="nonzero"/>
		</clipPath>
	</defs>
	<g clip-path="url(#clipPath2228090059)">
		<path transform="matrix(1 0 0 1 6 3)" d="M21 10.8281L21 23Q21 24.6569 19.8284 25.8284Q18.6569 27 17 27L3 27Q1.34315 27 0.171572 25.8284Q-1 24.6568 -1 23L-1 3Q-1 1.34315 0.171572 0.171573Q1.34315 -1 3 -1L9.17188 -1Q9.76856 -0.99991 10.3197 -0.771617Q10.8708 -0.543325 11.2927 -0.121562L20.1215 8.70727Q20.5433 9.12921 20.7716 9.68032Q20.9999 10.2314 21 10.828L21 10.8281ZM19 10.8283Q19 10.6294 18.9239 10.4457Q18.8478 10.262 18.7073 10.1215L9.8786 1.29281Q9.73798 1.15223 9.55427 1.07613Q9.37057 1.00003 9.17188 1L3 1Q2.17157 1 1.58579 1.58579Q1 2.17157 1 3L1 23Q1 23.8284 1.58579 24.4142Q2.17157 25 3 25L17 25Q17.8284 25 18.4142 24.4142Q19 23.8284 19 23L19 10.8281L19 10.8283Z" fill-rule="nonzero" fill="rgb(255, 255, 255)"/>
		<path transform="matrix(1 0 0 1 11 3.5)" d="M5 -1C4.44772 -1 4 -0.55228 4 0L4 7.5Q4 8.74264 4.87868 9.62132Q5.75736 10.5 7 10.5L14.5 10.5C15.0523 10.5 15.5 10.0523 15.5 9.5C15.5 8.94772 15.0523 8.5 14.5 8.5L7 8.5Q6.58578 8.5 6.29289 8.20711Q6 7.91421 6 7.5L6 0C6 -0.55228 5.55228 -1 5 -1ZM-1 14.5C-1 15.0523 -0.55228 15.5 0 15.5L10 15.5C10.5523 15.5 11 15.0523 11 14.5C11 13.9477 10.5523 13.5 10 13.5L0 13.5C-0.55228 13.5 -1 13.9477 -1 14.5ZM-1 19.5C-1 20.0523 -0.55228 20.5 0 20.5L10 20.5C10.5523 20.5 11 20.0523 11 19.5C11 18.9477 10.5523 18.5 10 18.5L0 18.5C-0.55228 18.5 -1 18.9477 -1 19.5Z" fill-rule="evenodd" fill="rgb(255, 255, 255)"/>
	</g>
</svg>
