<?xml version="1.0" encoding="utf-8" ?>
<svg xmlns="http://www.w3.org/2000/svg" xmlns:xlink="http://www.w3.org/1999/xlink" width="40.002" height="36.868" viewBox="0 0 40.002 36.868">
	<path transform="matrix(1 0 0 1 3.8147e-05 3.43323e-05)" d="M10.7509 27.998L13.2509 24.874L5.20294 18.436L13.2509 11.998L10.7509 8.874L0.750938 16.874C0.250313 17.2743 0 17.795 0 18.436C0 19.077 0.250313 19.5977 0.750938 19.998L10.7509 27.998ZM29.2509 8.874L26.7509 11.998L34.7989 18.436L26.7509 24.874L29.2509 27.998L39.2509 19.998C39.7516 19.5977 40.0019 19.077 40.0019 18.436C40.0019 17.795 39.7516 17.2743 39.2509 16.874L29.2509 8.874ZM25.9529 0.868001L17.9529 36.868L14.0469 36L22.0469 0L25.9529 0.868001Z" fill-rule="nonzero" fill="rgb(16, 185, 129)"/>
</svg>
