<?xml version="1.0" encoding="utf-8" ?>
<svg xmlns="http://www.w3.org/2000/svg" xmlns:xlink="http://www.w3.org/1999/xlink" width="43.2" height="33.6" viewBox="0 0 43.2 33.6">
	<path transform="matrix(1 0 0 1 9.77516e-05 4.91142e-05)" d="M19.2 7.2C19.2 9.18822 18.4971 10.8853 17.0912 12.2912C15.6853 13.6971 13.9882 14.4 12 14.4C10.0118 14.4 8.31472 13.6971 6.90883 12.2912C5.50294 10.8853 4.8 9.18822 4.8 7.2C4.8 5.21177 5.50294 3.51472 6.90883 2.10883C8.31472 0.702944 10.0118 0 12 0C13.9882 0 15.6853 0.702944 17.0912 2.10883C18.4971 3.51472 19.2 5.21177 19.2 7.2ZM38.4 7.2C38.4 9.18822 37.6971 10.8853 36.2912 12.2912C34.8853 13.6971 33.1882 14.4 31.2 14.4C29.2118 14.4 27.5147 13.6971 26.1088 12.2912C24.7029 10.8853 24 9.18822 24 7.2C24 5.21177 24.7029 3.51472 26.1088 2.10883C27.5147 0.702944 29.2118 0 31.2 0C33.1882 0 34.8853 0.702944 36.2912 2.10883C37.6971 3.51472 38.4 5.21177 38.4 7.2ZM28.632 33.6C28.7424 32.8152 28.8 32.016 28.8 31.2C28.8028 29.3146 28.4956 27.4812 27.8784 25.6997C27.2613 23.9182 26.3685 22.2876 25.2 20.808C29.1999 18.4986 33.1999 18.4986 37.1999 20.8079C41.1998 23.1172 43.1999 26.5813 43.2 31.2L43.2 33.6L28.632 33.6ZM12 19.2C15.3137 19.2 18.1421 20.3716 20.4853 22.7147C22.8284 25.0579 24 27.8863 24 31.2L24 33.6L0 33.6L0 31.2C0 27.8863 1.17157 25.0579 3.51472 22.7147C5.85786 20.3716 8.68629 19.2 12 19.2Z" fill-rule="nonzero" fill="rgb(107, 70, 193)"/>
</svg>
