<?xml version="1.0" encoding="utf-8" ?>
<svg xmlns="http://www.w3.org/2000/svg" xmlns:xlink="http://www.w3.org/1999/xlink" width="38.3999" height="38.4" viewBox="0 0 38.3999 38.4">
	<path transform="matrix(1 0 0 1 -4.86374e-05 -4.86374e-05)" d="M21.6 2.4C21.6 1.73726 21.3657 1.17157 20.8971 0.702944C20.4284 0.234315 19.8627 0 19.2 0C18.5373 0 17.9716 0.234314 17.5029 0.702943C17.0343 1.17157 16.8 1.73726 16.8 2.4L16.8 4.8C16.8 5.46274 17.0343 6.02843 17.5029 6.49706C17.9716 6.96569 18.5373 7.2 19.2 7.2C19.8627 7.2 20.4284 6.96569 20.8971 6.49706C21.3657 6.02843 21.6 5.46274 21.6 4.8L21.6 2.4ZM32.7768 9.0168C33.2316 8.54595 33.4561 7.98323 33.4504 7.32864C33.4447 6.67406 33.2104 6.11533 32.7476 5.65245C32.2847 5.18958 31.7259 4.95529 31.0714 4.9496C30.4168 4.94391 29.8541 5.16844 29.3832 5.6232L27.6864 7.32C27.2316 7.79085 27.0071 8.35358 27.0128 9.00817C27.0184 9.66276 27.2527 10.2215 27.7156 10.6844C28.1785 11.1473 28.7372 11.3816 29.3918 11.3872C30.0464 11.3929 30.6091 11.1684 31.08 10.7136L32.7768 9.0168ZM38.4 19.2C38.4 19.8627 38.1657 20.4284 37.6971 20.8971C37.2284 21.3657 36.6627 21.6 36 21.6L33.6 21.6C32.9373 21.6 32.3716 21.3657 31.9029 20.8971C31.4343 20.4284 31.2 19.8627 31.2 19.2C31.2 18.5373 31.4343 17.9716 31.9029 17.5029C32.3716 17.0343 32.9373 16.8 33.6 16.8L36 16.8C36.6627 16.8 37.2284 17.0343 37.6971 17.5029C38.1657 17.9716 38.4 18.5373 38.4 19.2ZM7.32 10.7136C7.78608 11.1962 8.35456 11.4404 9.02544 11.4462C9.69631 11.452 10.2689 11.2177 10.7433 10.7433C11.2177 10.2689 11.452 9.69631 11.4462 9.02544C11.4404 8.35456 11.1962 7.78608 10.7136 7.32L9.0168 5.6232C8.54595 5.16843 7.98323 4.94389 7.32864 4.94958C6.67405 4.95527 6.11532 5.18956 5.65244 5.65244C5.18956 6.11532 4.95527 6.67405 4.94958 7.32864C4.94389 7.98323 5.16843 8.54595 5.6232 9.0168L7.32 10.7136ZM7.2 19.2C7.2 19.8627 6.96569 20.4284 6.49706 20.8971C6.02843 21.3657 5.46274 21.6 4.8 21.6L2.4 21.6C1.73726 21.6 1.17157 21.3657 0.702944 20.8971C0.234314 20.4284 -1.90735e-07 19.8627 0 19.2C-1.90735e-07 18.5373 0.234314 17.9716 0.702943 17.5029C1.17157 17.0343 1.73726 16.8 2.4 16.8L4.8 16.8C5.46274 16.8 6.02843 17.0343 6.49706 17.5029C6.96569 17.9716 7.2 18.5373 7.2 19.2ZM14.4 33.6L14.4 31.2L24 31.2L24 33.6C24 34.9255 23.5314 36.0569 22.5941 36.9941C21.6569 37.9314 20.5255 38.4 19.2 38.4C17.8745 38.4 16.7431 37.9314 15.8059 36.9941C14.8686 36.0569 14.4 34.9255 14.4 33.6ZM24 28.8C24.036 27.984 24.4992 27.2496 25.1448 26.7384C27.3427 25.005 28.5513 22.743 28.7705 19.9525C28.9898 17.1619 28.1493 14.7389 26.2491 12.6836C24.3489 10.6282 21.9992 9.60054 19.2 9.60054C16.4008 9.60054 14.0511 10.6282 12.1509 12.6836C10.2507 14.7389 9.41024 17.1619 9.62949 19.9525C9.84874 22.743 11.0573 25.005 13.2552 26.7384C13.9032 27.2496 14.364 27.984 14.3976 28.8L24 28.8Z" fill-rule="nonzero" fill="rgb(255, 165, 0)"/>
</svg>
