<?xml version="1.0" encoding="utf-8" ?>
<svg xmlns="http://www.w3.org/2000/svg" xmlns:xlink="http://www.w3.org/1999/xlink" width="48" height="48" viewBox="0 0 48 48">
	<path transform="matrix(1 0 0 1 0 0)" d="M47.355 1.79004C47.2435 1.27148 46.7308 0.758789 46.2106 0.647461C43.1921 0 40.8288 0 38.4757 0C28.7977 0 22.994 5.17529 18.6612 12L8.89104 12C7.35845 12.0015 5.55761 13.1133 4.87041 14.4829L0.235839 23.7466C0.164227 23.9045 0.10858 24.0679 0.0688982 24.2368C0.0292164 24.4056 0.00625032 24.5767 0 24.75C0.000225166 25.3713 0.220039 25.9016 0.659442 26.3409C1.09884 26.7802 1.62921 26.9999 2.25055 27L11.9828 27L9.87577 29.1064C8.81029 30.1716 8.65739 32.1306 9.87577 33.3486L14.648 38.1211C15.6939 39.1699 17.6627 39.3545 18.8928 38.1211L20.9998 36.0146L20.9998 45.75C21 46.3713 21.2198 46.9016 21.6592 47.3409C22.0986 47.7802 22.629 47.9999 23.2503 48C23.4237 47.9936 23.5948 47.9705 23.7637 47.9309C23.9325 47.8912 24.096 47.8356 24.2541 47.7642L33.5099 43.1338C34.8813 42.4497 35.995 40.6494 35.995 39.1157L35.995 29.3247C42.801 24.9829 47.9983 19.1616 47.9983 9.53467C48.007 7.17187 48.0071 4.80908 47.355 1.79004ZM36.0038 15.75C34.9683 15.7498 34.0845 15.3835 33.3525 14.6511C32.6205 13.9188 32.2545 13.0349 32.2547 11.9994C32.2548 10.9639 32.6211 10.0801 33.3534 9.34803C34.0856 8.61593 34.9695 8.24992 36.005 8.25C37.0405 8.25008 37.9243 8.61624 38.6564 9.34846C39.3886 10.0807 39.7547 10.9645 39.7547 12C39.7541 13.0355 39.3876 13.9192 38.6554 14.6513C37.9231 15.3834 37.0392 15.7496 36.0038 15.75Z" fill-rule="nonzero" fill="rgb(65, 105, 225)"/>
</svg>
