<?xml version="1.0" encoding="utf-8" ?>
<svg xmlns="http://www.w3.org/2000/svg" xmlns:xlink="http://www.w3.org/1999/xlink" width="21" height="24" viewBox="0 0 21 24">
	<defs>
		<clipPath id="clipPath8177691923">
			<path transform="matrix(1 0 0 1 0 0)" d="M0 0L21 0L21 24L0 24L0 0Z" fill-rule="nonzero"/>
		</clipPath>
	</defs>
	<g clip-path="url(#clipPath8177691923)">
		<defs>
			<clipPath id="clipPath1359705874">
				<path transform="matrix(1 0 0 1 0 0)" d="M0 0L21 0L21 24L0 24L0 0Z" fill-rule="nonzero"/>
			</clipPath>
		</defs>
		<g clip-path="url(#clipPath1359705874)">
			<path transform="matrix(1 0 0 1 1.3125 0)" d="M18.375 16.875L18.375 1.125C18.375 0.501562 17.9361 0 17.3906 0L3.9375 0C1.76367 0 0 2.01562 0 4.5L0 19.5C0 21.9844 1.76367 24 3.9375 24L17.3906 24C17.9361 24 18.375 23.4984 18.375 22.875L18.375 22.125C18.375 21.7734 18.2314 21.4547 18.01 21.2484C17.8377 20.5266 17.8377 18.4688 18.01 17.7469C18.2314 17.5453 18.375 17.2266 18.375 16.875ZM5.25 6.28125C5.25 6.12656 5.36074 6 5.49609 6L14.1914 6C14.3268 6 14.4375 6.12656 14.4375 6.28125L14.4375 7.21875C14.4375 7.37344 14.3268 7.5 14.1914 7.5L5.49609 7.5C5.36074 7.5 5.25 7.37344 5.25 7.21875L5.25 6.28125ZM5.25 9.28125C5.25 9.12656 5.36074 9 5.49609 9L14.1914 9C14.3268 9 14.4375 9.12656 14.4375 9.28125L14.4375 10.2188C14.4375 10.3734 14.3268 10.5 14.1914 10.5L5.49609 10.5C5.36074 10.5 5.25 10.3734 5.25 10.2188L5.25 9.28125ZM15.6434 21L3.9375 21C3.21152 21 2.625 20.3297 2.625 19.5C2.625 18.675 3.21563 18 3.9375 18L15.6434 18C15.5654 18.8016 15.5654 20.1984 15.6434 21Z" fill-rule="nonzero" fill="rgb(37, 99, 235)"/>
		</g>
	</g>
</svg>
