<?xml version="1.0" encoding="utf-8" ?>
<svg xmlns="http://www.w3.org/2000/svg" xmlns:xlink="http://www.w3.org/1999/xlink" width="16" height="16" viewBox="0 0 16 16">
	<defs>
		<clipPath id="clipPath6884714238">
			<path transform="matrix(1 0 0 1 0 0)" d="M0 0L16 0L16 16L0 16L0 0Z" fill-rule="nonzero"/>
		</clipPath>
	</defs>
	<g clip-path="url(#clipPath6884714238)">
		<defs>
			<clipPath id="clipPath1832012459">
				<path transform="matrix(1 0 0 1 0 0)" d="M0 0L16 0L16 16L0 16L0 0Z" fill-rule="nonzero"/>
			</clipPath>
		</defs>
		<g clip-path="url(#clipPath1832012459)">
			<path transform="matrix(1 0 0 1 1.5 1.5)" d="M6.5 0C2.91594 0 0 2.91594 0 6.5C0 10.0841 2.91594 13 6.5 13C10.0841 13 13 10.0841 13 6.5C13 2.91594 10.0841 0 6.5 0ZM9.88281 4.32156L5.68281 9.32156C5.6362 9.37708 5.58017 9.42041 5.51471 9.45155C5.44926 9.4827 5.38029 9.49885 5.30781 9.5L5.29938 9.5C5.22851 9.49997 5.16071 9.48553 5.09599 9.45668C5.03126 9.42783 4.9752 9.38706 4.92781 9.33437L3.12781 7.33437C3.03154 7.23226 2.98628 7.11109 2.99203 6.97087C2.99779 6.83064 3.05282 6.71359 3.15715 6.61971C3.26147 6.52583 3.38365 6.48339 3.52371 6.4924C3.66376 6.50141 3.7795 6.55915 3.87094 6.66562L5.28625 8.23812L9.11719 3.67844C9.20659 3.57507 9.31941 3.51796 9.45564 3.50711C9.59187 3.49625 9.71231 3.53477 9.81695 3.62267C9.9216 3.71058 9.98033 3.82256 9.99315 3.95862C10.006 4.09468 9.96919 4.21566 9.88281 4.32156Z" fill-rule="nonzero" fill="rgb(22, 163, 74)"/>
		</g>
	</g>
</svg>
