<?xml version="1.0" encoding="utf-8" ?>
<svg xmlns="http://www.w3.org/2000/svg" xmlns:xlink="http://www.w3.org/1999/xlink" width="20" height="20" viewBox="0 0 20 20">
	<defs>
		<clipPath id="clipPath9320793266">
			<path transform="matrix(1 0 0 1 0 0)" d="M0 0L20 0L20 20L0 20L0 0Z" fill-rule="nonzero"/>
		</clipPath>
	</defs>
	<g clip-path="url(#clipPath9320793266)">
		<defs>
			<clipPath id="clipPath4749558323">
				<path transform="matrix(1 0 0 1 0 0)" d="M0 0L20 0L20 20L0 20L0 0Z" fill-rule="nonzero"/>
			</clipPath>
		</defs>
		<g clip-path="url(#clipPath4749558323)">
			<path transform="matrix(1 0 0 1 1.25 1.875)" d="M2.5 3.4375C2.5 2.48826 2.83561 1.67803 3.50682 1.00682C4.17803 0.335607 4.98826 0 5.9375 0C6.88674 0 7.69697 0.335607 8.36818 1.00682C9.03939 1.67803 9.375 2.48826 9.375 3.4375C9.375 4.38674 9.03939 5.19697 8.36818 5.86818C7.69697 6.53939 6.88674 6.875 5.9375 6.875C4.98826 6.875 4.17803 6.53939 3.50682 5.86818C2.83561 5.19697 2.5 4.38674 2.5 3.4375ZM10.625 5.3125C10.625 4.53585 10.8996 3.87294 11.4488 3.32376C11.9979 2.77459 12.6608 2.5 13.4375 2.5C14.2142 2.5 14.8771 2.77459 15.4262 3.32376C15.9754 3.87294 16.25 4.53585 16.25 5.3125C16.25 6.08915 15.9754 6.75206 15.4262 7.30124C14.8771 7.85041 14.2142 8.125 13.4375 8.125C12.6608 8.125 11.9979 7.85041 11.4488 7.30124C10.8996 6.75206 10.625 6.08915 10.625 5.3125ZM0 14.0625C0.000565847 12.4233 0.580492 11.0243 1.73978 9.86538C2.89906 8.70649 4.2983 8.12705 5.9375 8.12705C7.57669 8.12705 8.97593 8.70649 10.1352 9.86538C11.2945 11.0243 11.8744 12.4233 11.875 14.0625L11.8742 14.1642C11.8724 14.2719 11.8446 14.3724 11.7908 14.4658C11.737 14.5591 11.664 14.6336 11.5717 14.6892C10.7213 15.2012 9.81788 15.5898 8.86129 15.8548C7.90471 16.1198 6.93011 16.2515 5.9375 16.25C3.8775 16.25 1.94917 15.68 0.304166 14.6892C0.211711 14.6337 0.138513 14.5593 0.084572 14.4659C0.0306312 14.3726 0.0027182 14.272 0.000833174 14.1642L0 14.0625ZM13.125 14.065L13.1242 14.185C13.1218 14.3239 13.1043 14.4608 13.0715 14.5958C13.0388 14.7308 12.9916 14.8605 12.93 14.985C13.6574 15.0299 14.3784 14.981 15.0931 14.8383C15.8077 14.6957 16.4923 14.464 17.1467 14.1433C17.2498 14.0929 17.3327 14.0197 17.3955 13.9236C17.4582 13.8275 17.492 13.7222 17.4967 13.6075C17.5609 12.0805 16.9561 10.8948 15.6821 10.0504C14.4082 9.20605 13.0805 9.11091 11.6992 9.765C12.163 10.3852 12.5168 11.0629 12.7606 11.7981C13.0043 12.5332 13.1264 13.2905 13.125 14.065Z" fill-rule="nonzero" fill="rgb(75, 85, 99)"/>
		</g>
	</g>
</svg>
