<?xml version="1.0" encoding="utf-8" ?>
<svg xmlns="http://www.w3.org/2000/svg" xmlns:xlink="http://www.w3.org/1999/xlink" width="6" height="10.5" viewBox="0 0 6 10.5">
	<path transform="matrix(1 0 0 1 0.75 0.75)" d="M-0.53033 0.53033C-0.823221 0.237439 -0.823221 -0.237439 -0.53033 -0.53033C-0.237439 -0.823221 0.237439 -0.823221 0.53033 -0.53033L5.03033 3.96967Q5.08256 4.0219 5.1236 4.08332Q5.16464 4.14474 5.19291 4.21299Q5.22118 4.28123 5.23559 4.35368Q5.25 4.42613 5.25 4.5Q5.25 4.57387 5.23559 4.64632Q5.22118 4.71877 5.19291 4.78701Q5.16464 4.85526 5.1236 4.91668Q5.08256 4.9781 5.03033 5.03033L0.53033 9.53033C0.237439 9.82322 -0.237439 9.82322 -0.53033 9.53033C-0.823221 9.23744 -0.823221 8.76256 -0.53033 8.46967L3.43934 4.5L-0.53033 0.53033Z" fill-rule="evenodd" fill="rgb(75, 85, 99)"/>
</svg>
