<?xml version="1.0" encoding="utf-8" ?>
<svg xmlns="http://www.w3.org/2000/svg" xmlns:xlink="http://www.w3.org/1999/xlink" width="44" height="36" viewBox="0 0 44 36">
	<path transform="matrix(1 0 0 1 2 2)" d="M27.4084 9.06867Q28 7.64047 28 6Q28 4.35953 27.4084 2.93133Q26.8168 1.50313 25.6569 0.343145Q24.4969 -0.816839 23.0687 -1.40842Q21.6405 -2 20 -2Q18.3595 -2 16.9313 -1.40842Q15.5031 -0.816839 14.3431 0.343145Q13.1832 1.50313 12.5916 2.93133Q12 4.35953 12 6Q12 7.64047 12.5916 9.06867Q13.1832 10.4969 14.3431 11.6569Q15.5031 12.8168 16.9313 13.4084Q18.3595 14 20 14Q21.6405 14 23.0687 13.4084Q24.4969 12.8168 25.6569 11.6569Q26.8168 10.4969 27.4084 9.06867ZM23.7129 4.46207Q24 5.15519 24 6Q24 6.84481 23.7129 7.53793Q23.4258 8.23105 22.8284 8.82843Q22.231 9.4258 21.5379 9.7129Q20.8448 10 20 10Q19.1552 10 18.4621 9.7129Q17.7689 9.4258 17.1716 8.82843Q16.5742 8.23105 16.2871 7.53793Q16 6.84482 16 6Q16 5.15518 16.2871 4.46207Q16.5742 3.76895 17.1716 3.17157Q17.7689 2.5742 18.4621 2.2871Q19.1552 2 20 2Q20.8448 2 21.5379 2.2871Q22.2311 2.5742 22.8284 3.17157Q23.4258 3.76895 23.7129 4.46207ZM12 12Q12 13.2263 11.5549 14.3009Q11.1097 15.3755 10.2426 16.2426Q9.37555 17.1097 8.3009 17.5549Q7.22625 18 6 18Q4.77375 18 3.6991 17.5549Q2.62444 17.1097 1.75736 16.2426Q0.890268 15.3755 0.445134 14.3009Q0 13.2263 0 12Q0 10.7737 0.445134 9.6991Q0.890268 8.62445 1.75736 7.75736Q2.62445 6.89027 3.6991 6.44513Q4.77375 6 6 6Q7.22625 6 8.3009 6.44513Q9.37555 6.89027 10.2426 7.75736Q11.1097 8.62445 11.5549 9.6991Q12 10.7737 12 12ZM40 12Q40 13.2263 39.5549 14.3009Q39.1097 15.3755 38.2426 16.2426Q37.3755 17.1097 36.3009 17.5549Q35.2263 18 34 18Q32.7737 18 31.6991 17.5549Q30.6244 17.1097 29.7574 16.2426Q28.8903 15.3755 28.4451 14.3009Q28 13.2263 28 12Q28 10.7737 28.4451 9.6991Q28.8903 8.62445 29.7574 7.75736Q30.6245 6.89026 31.6991 6.44513Q32.7737 6 34 6Q35.2262 6 36.3009 6.44513Q37.3755 6.89027 38.2426 7.75736Q39.1097 8.62445 39.5549 9.6991Q40 10.7737 40 12ZM8 12Q8 11.5694 7.85935 11.2298Q7.71869 10.8903 7.41421 10.5858Q7.10973 10.2813 6.77017 10.1407Q6.4306 10 6 10Q5.5694 10 5.22983 10.1407Q4.89027 10.2813 4.58579 10.5858Q4.2813 10.8903 4.14065 11.2298Q4 11.5694 4 12Q4 12.4306 4.14065 12.7702Q4.2813 13.1097 4.58579 13.4142Q4.89027 13.7187 5.22984 13.8593Q5.5694 14 6 14Q6.4306 14 6.77017 13.8593Q7.10973 13.7187 7.41421 13.4142Q7.71869 13.1097 7.85935 12.7702Q8 12.4306 8 12ZM36 12Q36 11.5694 35.8593 11.2298Q35.7187 10.8903 35.4142 10.5858Q35.1097 10.2813 34.7702 10.1407Q34.4306 10 34 10Q33.5694 10 33.2298 10.1407Q32.8903 10.2813 32.5858 10.5858Q32.2813 10.8903 32.1407 11.2298Q32 11.5694 32 12Q32 12.4306 32.1407 12.7702Q32.2813 13.1097 32.5858 13.4142Q32.8903 13.7187 33.2298 13.8593Q33.5694 14 34 14Q34.4306 14 34.7702 13.8593Q35.1097 13.7187 35.4142 13.4142Q35.7187 13.1097 35.8593 12.7702Q36 12.4306 36 12ZM31.7527 20.3226Q30.7329 20.6211 29.8636 21.1423Q28.6196 19.3418 26.7291 18.062Q23.6809 15.9986 20 15.9986Q16.3191 15.9986 13.2709 18.062Q11.3802 19.3419 10.1363 21.1423Q9.26702 20.621 8.2473 20.3226Q5.79426 19.6046 3.37934 20.4419Q0.96441 21.2791 -0.517702 23.3615Q-1.99981 25.4439 -2 27.9999L-2 32Q-2 32.0983 -1.99037 32.196Q-1.98074 32.2938 -1.96157 32.3902Q-1.9424 32.4865 -1.91388 32.5806Q-1.88536 32.6746 -1.84776 32.7654Q-1.81016 32.8561 -1.76384 32.9428Q-1.71753 33.0294 -1.66294 33.1111Q-1.60835 33.1928 -1.54602 33.2688Q-1.48369 33.3447 -1.41421 33.4142Q-1.34474 33.4837 -1.26879 33.546Q-1.19284 33.6084 -1.11114 33.6629Q-1.02945 33.7175 -0.942793 33.7638Q-0.856141 33.8102 -0.765367 33.8478Q-0.674592 33.8854 -0.580569 33.9139Q-0.486546 33.9424 -0.390181 33.9616Q-0.293815 33.9807 -0.196034 33.9904Q-0.0982537 34 0 34L40 34Q40.0983 34 40.196 33.9904Q40.2938 33.9807 40.3902 33.9616Q40.4865 33.9424 40.5806 33.9139Q40.6746 33.8854 40.7654 33.8478Q40.8561 33.8102 40.9428 33.7638Q41.0294 33.7175 41.1111 33.6629Q41.1928 33.6083 41.2688 33.546Q41.3447 33.4837 41.4142 33.4142Q41.4837 33.3447 41.546 33.2688Q41.6084 33.1928 41.6629 33.1111Q41.7175 33.0294 41.7638 32.9428Q41.8102 32.8561 41.8478 32.7654Q41.8854 32.6746 41.9139 32.5806Q41.9424 32.4865 41.9616 32.3902Q41.9807 32.2938 41.9904 32.196Q42 32.0983 42 32L42 28Q41.9998 25.4439 40.5177 23.3615Q39.0356 21.2792 36.6207 20.4419Q34.2057 19.6046 31.7527 20.3226ZM12 28L12 30L28 30L28 28Q28 27.8061 27.9911 27.6142Q27.9289 26.2713 27.4315 25.0299L27.4311 25.029Q26.5193 22.7503 24.4868 21.3745Q22.4544 19.9986 20 19.9986Q17.5456 19.9986 15.5132 21.3745Q13.4807 22.7503 12.5685 25.0299Q12 26.4487 12 28ZM7.12365 24.1615Q5.89713 23.8025 4.68967 24.2212Q3.4822 24.6398 2.74115 25.681Q2.00009 26.7222 2 28.0001L2 30L8 30L8 28Q8 26.3606 8.42615 24.8147Q8.39615 24.7917 8.36574 24.7694Q7.81357 24.3634 7.12365 24.1615ZM32.8763 24.1615Q32.1485 24.3746 31.5739 24.8146Q31.8868 25.9497 31.9699 27.1355Q32 27.5644 32 28L32 30L38 30L38 28Q37.9999 26.7222 37.2589 25.681Q36.5178 24.6398 35.3103 24.2212Q34.1029 23.8025 32.8763 24.1615Z" fill-rule="evenodd" fill="rgb(57, 71, 213)"/>
</svg>
