<?xml version="1.0" encoding="utf-8" ?>
<svg xmlns="http://www.w3.org/2000/svg" xmlns:xlink="http://www.w3.org/1999/xlink" width="40" height="32.506" viewBox="0 0 40 32.506">
	<path transform="matrix(1 0 0 1 2 2)" d="M18 0.171904Q16.3858 -0.711156 14.4804 -1.25279Q11.8517 -2 9 -2Q6.14829 -2 3.51965 -1.25279Q0.939492 -0.519353 -1.10677 0.840145Q-1.20938 0.908323 -1.30286 0.988581Q-1.39633 1.06884 -1.47925 1.15996Q-1.56217 1.25109 -1.63328 1.3517Q-1.70438 1.45231 -1.7626 1.56089Q-1.82082 1.66947 -1.86528 1.78437Q-1.90973 1.89927 -1.93974 2.01876Q-1.96976 2.13826 -1.98488 2.26053Q-2 2.3828 -2 2.506L-2 28.506Q-2 28.6043 -1.99037 28.702Q-1.98074 28.7998 -1.96157 28.8962Q-1.9424 28.9925 -1.91388 29.0866Q-1.88536 29.1806 -1.84776 29.2714Q-1.81016 29.3621 -1.76384 29.4488Q-1.71753 29.5354 -1.66294 29.6171Q-1.60835 29.6988 -1.54602 29.7748Q-1.48369 29.8507 -1.41421 29.9202Q-1.34474 29.9897 -1.26879 30.052Q-1.19284 30.1143 -1.11114 30.1689Q-1.02945 30.2235 -0.942793 30.2698Q-0.856141 30.3162 -0.765367 30.3538Q-0.674592 30.3914 -0.580569 30.4199Q-0.486546 30.4484 -0.390181 30.4676Q-0.293815 30.4867 -0.196034 30.4964Q-0.0982537 30.506 0 30.506Q0.295329 30.506 0.578054 30.4206Q0.860779 30.3353 1.10677 30.1719Q2.63334 29.1576 4.61335 28.5948Q6.70576 28 9 28Q11.2942 28 13.3866 28.5948Q15.3667 29.1576 16.8932 30.1719Q17.0156 30.2531 17.1485 30.3157Q17.2813 30.3782 17.4219 30.4206Q17.5625 30.4631 17.7078 30.4845Q17.8531 30.506 18 30.506Q18.1469 30.506 18.2922 30.4845Q18.4375 30.4631 18.5781 30.4206Q18.7187 30.3782 18.8515 30.3157Q18.9844 30.2531 19.1068 30.1719Q20.6333 29.1576 22.6134 28.5948Q24.7058 28 27 28Q29.2953 28 31.3873 28.5948Q33.3663 29.1574 34.8932 30.1719Q35.0573 30.2809 35.2395 30.3558Q35.4217 30.4307 35.615 30.4686Q35.8083 30.5065 36.0053 30.506Q36.2022 30.5055 36.3953 30.4665Q36.5884 30.4276 36.7702 30.3517Q36.952 30.2759 37.1155 30.166Q37.279 30.0561 37.4179 29.9165Q37.5568 29.7768 37.6659 29.6128Q37.8293 29.3668 37.9146 29.0841Q38 28.8013 38 28.506L38 2.506Q38 2.3828 37.9849 2.26053Q37.9698 2.13826 37.9397 2.01877Q37.9097 1.89927 37.8653 1.78437Q37.8208 1.66947 37.7626 1.56089Q37.7044 1.45231 37.6333 1.3517Q37.5622 1.25109 37.4792 1.15996Q37.3963 1.06884 37.3029 0.988583Q37.2094 0.908325 37.1068 0.840147Q35.0603 -0.519515 32.4812 -1.25276Q29.8529 -2 27 -2Q24.1483 -2 21.5196 -1.25279Q19.6142 -0.711157 18 0.171904ZM4.61335 2.59479Q6.70576 2 9 2Q11.2942 2 13.3866 2.59479Q14.7479 2.98173 15.8948 3.58204Q15.9476 3.60967 16 3.63777L16 25.2511Q15.2649 24.9702 14.4804 24.7472Q11.8517 24 9 24Q6.14828 24 3.51965 24.7472Q2.73514 24.9702 2 25.2511L2 3.63777Q3.18942 2.99955 4.61335 2.59479ZM20 3.63777L20 25.2511Q20.7352 24.9702 21.5196 24.7472Q24.1483 24 27 24Q29.8529 24 32.4812 24.7472Q33.2652 24.9701 34 25.2509L34 3.63772Q32.8106 2.99941 31.3873 2.59476Q29.2953 2 27 2Q24.7058 2 22.6134 2.59479Q21.1894 2.99955 20 3.63777Z" fill-rule="evenodd" fill="rgb(57, 71, 213)"/>
</svg>
