<?xml version="1.0" encoding="utf-8" ?>
<svg xmlns="http://www.w3.org/2000/svg" xmlns:xlink="http://www.w3.org/1999/xlink" width="40" height="40" viewBox="0 0 40 40">
	<path transform="matrix(1 0 0 1 2 2)" d="M30 4L30 6L32 6Q33.2262 6 34.3009 6.44513Q35.3755 6.89027 36.2426 7.75736Q37.1097 8.62445 37.5549 9.6991Q38 10.7737 38 12L38 24Q38 25.2263 37.5549 26.3009Q37.1097 27.3755 36.2426 28.2426Q35.3755 29.1097 34.3009 29.5549Q33.2263 30 32 30L30 30L30 36Q30 36.197 29.9616 36.3902Q29.9231 36.5834 29.8478 36.7654Q29.7724 36.9473 29.6629 37.1111Q29.5535 37.2749 29.4142 37.4142Q29.3447 37.4837 29.2688 37.546Q29.1928 37.6084 29.1111 37.6629Q29.0294 37.7175 28.9428 37.7638Q28.8561 37.8102 28.7654 37.8478Q28.6746 37.8854 28.5806 37.9139Q28.4865 37.9424 28.3902 37.9616Q28.2938 37.9807 28.196 37.9904Q28.0983 38 28 38Q27.9017 38 27.804 37.9904Q27.7062 37.9807 27.6098 37.9616Q27.5135 37.9424 27.4194 37.9139Q27.3254 37.8854 27.2346 37.8478Q27.1439 37.8102 27.0572 37.7638Q26.9706 37.7175 26.8889 37.6629Q26.8072 37.6084 26.7312 37.546Q26.6553 37.4837 26.5858 37.4142L19.1716 30L12.0021 30Q10.8072 30.0012 9.70336 29.5438Q9.55616 29.4828 9.41358 29.4148Q9.27431 29.554 9.11058 29.6633Q8.94685 29.7726 8.76495 29.8479Q8.58305 29.9232 8.38996 29.9616Q8.19687 30 8 30Q7.90175 30 7.80397 29.9904Q7.70619 29.9807 7.60982 29.9616Q7.51345 29.9424 7.41943 29.9139Q7.32541 29.8854 7.23463 29.8478Q7.14386 29.8102 7.05721 29.7638Q6.97055 29.7175 6.88886 29.6629Q6.80716 29.6084 6.73121 29.546Q6.65526 29.4837 6.58579 29.4142Q6.51631 29.3447 6.45398 29.2688Q6.39165 29.1928 6.33706 29.1111Q6.28247 29.0294 6.23616 28.9428Q6.18984 28.8561 6.15224 28.7654Q6.11464 28.6746 6.08612 28.5806Q6.0576 28.4865 6.03843 28.3902Q6.01926 28.2938 6.00963 28.196Q6 28.0983 6 28L6 22L4 22Q2.77374 22 1.6991 21.5549Q0.624449 21.1097 -0.24264 20.2426Q-1.10973 19.3755 -1.55487 18.3009Q-2 17.2262 -2 16L-2 4Q-2 2.77375 -1.55487 1.6991Q-1.10973 0.62445 -0.242641 -0.242641Q0.624451 -1.10973 1.6991 -1.55487Q2.77375 -2 4 -2L24 -2Q25.2262 -2 26.3009 -1.55487Q27.3755 -1.10973 28.2426 -0.242642Q29.1097 0.624449 29.5549 1.6991Q30 2.77374 30 4ZM26 16L26 4Q26 3.5694 25.8593 3.22983Q25.7187 2.89027 25.4142 2.58579Q25.1097 2.2813 24.7702 2.14065Q24.4306 2 24 2L4 2Q3.5694 2 3.22983 2.14065Q2.89027 2.2813 2.58579 2.58579Q2.2813 2.89027 2.14065 3.22983Q2 3.5694 2 4L2 16Q2 16.4306 2.14065 16.7702Q2.28131 17.1097 2.58579 17.4142Q2.89027 17.7187 3.22983 17.8593Q3.5694 18 4 18L8 18Q8.09825 18 8.19603 18.0096Q8.29381 18.0193 8.39018 18.0384Q8.48655 18.0576 8.58057 18.0861Q8.67459 18.1146 8.76537 18.1522Q8.85614 18.1898 8.94279 18.2362Q9.02944 18.2825 9.11114 18.3371Q9.19283 18.3916 9.26879 18.454Q9.34474 18.5163 9.41421 18.5858Q9.48369 18.6553 9.54602 18.7312Q9.60835 18.8072 9.66294 18.8889Q9.71753 18.9706 9.76384 19.0572Q9.81016 19.1439 9.84776 19.2346Q9.88536 19.3254 9.91388 19.4194Q9.9424 19.5135 9.96157 19.6098Q9.98074 19.7062 9.99037 19.804Q10 19.9017 10 20L10 23.1716L14.5858 18.5858L16 20L16 18L24 18Q24.4306 18 24.7702 17.8593Q25.1097 17.7187 25.4142 17.4142Q25.7187 17.1097 25.8593 16.7702Q26 16.4306 26 16ZM16.8284 22L24 22Q25.2263 22 26.3009 21.5549Q27.3755 21.1097 28.2426 20.2426Q29.1097 19.3755 29.5549 18.3009Q30 17.2263 30 16L30 10L32 10Q32.4306 10 32.7702 10.1407Q33.1097 10.2813 33.4142 10.5858Q33.7187 10.8903 33.8593 11.2298Q34 11.5694 34 12L34 24Q34 24.4306 33.8593 24.7702Q33.7187 25.1097 33.4142 25.4142Q33.1097 25.7187 32.7702 25.8593Q32.4306 26 32 26L28 26Q27.9017 26 27.804 26.0096Q27.7062 26.0193 27.6098 26.0384Q27.5135 26.0576 27.4194 26.0861Q27.3254 26.1146 27.2346 26.1522Q27.1439 26.1898 27.0572 26.2362Q26.9706 26.2825 26.8889 26.3371Q26.8072 26.3916 26.7312 26.454Q26.6553 26.5163 26.5858 26.5858Q26.5163 26.6553 26.454 26.7312Q26.3916 26.8072 26.3371 26.8889Q26.2825 26.9706 26.2362 27.0572Q26.1898 27.1439 26.1522 27.2346Q26.1146 27.3254 26.0861 27.4194Q26.0576 27.5135 26.0384 27.6098Q26.0193 27.7062 26.0096 27.804Q26 27.9017 26 28L26 31.1716L21.4142 26.5858Q21.2749 26.4465 21.1111 26.3371Q20.9474 26.2276 20.7654 26.1522Q20.5834 26.0769 20.3902 26.0384Q20.197 26 20 26L12.8284 26L16.8284 22Z" fill-rule="evenodd" fill="rgb(57, 71, 213)"/>
</svg>
