<?xml version="1.0" encoding="utf-8" ?>
<svg xmlns="http://www.w3.org/2000/svg" xmlns:xlink="http://www.w3.org/1999/xlink" width="40" height="40" viewBox="0 0 40 40">
	<path transform="matrix(1 0 0 1 2 2)" d="M22.4451 1.6991Q22 2.77374 22 4L22 6.33026Q21.0562 6 20 6L16 6Q14.7737 6 13.6991 6.44513Q12.6245 6.89027 11.7574 7.75736Q10.8903 8.62445 10.4451 9.6991Q10 10.7737 10 12L10 14.3303Q9.05624 14 8 14L4 14Q2.77374 14 1.6991 14.4451Q0.624451 14.8903 -0.24264 15.7574Q-1.10973 16.6245 -1.55487 17.6991Q-2 18.7737 -2 20L-2 32Q-2 33.2262 -1.55487 34.3009Q-1.10973 35.3756 -0.24264 36.2426Q0.624453 37.1097 1.6991 37.5549Q2.77374 38 4 38L8 38Q9.22626 38 10.3009 37.5549Q11.2276 37.171 12 36.4734Q12.7724 37.171 13.6991 37.5549Q14.7737 38 16 38L20 38Q21.2263 38 22.3009 37.5549Q23.2276 37.171 24 36.4734Q24.7724 37.171 25.6991 37.5549Q26.7737 38 28 38L32 38Q33.2263 38 34.3009 37.5549Q35.3755 37.1097 36.2426 36.2426Q37.1097 35.3756 37.5549 34.3009Q38 33.2263 38 32L38 4Q38 2.77374 37.5549 1.6991Q37.1097 0.624453 36.2426 -0.24264Q35.3756 -1.10973 34.3009 -1.55487Q33.2262 -2 32 -2L28 -2Q26.7737 -2 25.6991 -1.55487Q24.6245 -1.10973 23.7574 -0.242642Q22.8903 0.624449 22.4451 1.6991ZM26 4Q26 3.5694 26.1407 3.22983Q26.2813 2.89027 26.5858 2.58579Q26.8903 2.2813 27.2298 2.14065Q27.5694 2 28 2L32 2Q32.4306 2 32.7702 2.14065Q33.1097 2.2813 33.4142 2.58579Q33.7187 2.89027 33.8593 3.22983Q34 3.5694 34 4L34 32Q34 32.4306 33.8593 32.7702Q33.7187 33.1097 33.4142 33.4142Q33.1097 33.7187 32.7702 33.8593Q32.4306 34 32 34L28 34Q27.5694 34 27.2298 33.8593Q26.8903 33.7187 26.5858 33.4142Q26.2813 33.1097 26.1406 32.7702Q26 32.4306 26 32L26 4ZM14 32L14 12Q14 11.5694 14.1407 11.2298Q14.2637 10.9327 14.5122 10.6625Q14.5477 10.6238 14.5858 10.5858Q14.8903 10.2813 15.2298 10.1407Q15.5694 10 16 10L20 10Q20.4306 10 20.7702 10.1407Q21.1097 10.2813 21.4142 10.5858Q21.7187 10.8903 21.8593 11.2298Q22 11.5694 22 12L22 32Q22 32.4306 21.8593 32.7702Q21.7187 33.1097 21.4142 33.4142Q21.1097 33.7187 20.7702 33.8593Q20.4306 34 20 34L16 34Q15.5694 34 15.2298 33.8593Q14.8903 33.7187 14.5858 33.4142Q14.2813 33.1097 14.1407 32.7702Q14 32.4306 14 32ZM10 20L10 32Q10 32.4306 9.85935 32.7702Q9.7187 33.1097 9.41421 33.4142Q9.10972 33.7187 8.77016 33.8593Q8.4306 34 8 34L4 34Q3.5694 34 3.22983 33.8593Q2.89027 33.7187 2.58579 33.4142Q2.2813 33.1097 2.14065 32.7702Q2 32.4306 2 32L2 20Q2 19.5694 2.14065 19.2298Q2.2813 18.8903 2.58579 18.5858Q2.89027 18.2813 3.22983 18.1407Q3.5694 18 4 18L8 18Q8.4306 18 8.77017 18.1407Q9.10973 18.2813 9.41422 18.5858Q9.71869 18.8903 9.85935 19.2298Q10 19.5694 10 20Z" fill-rule="evenodd" fill="rgb(57, 71, 213)"/>
</svg>
