<?xml version="1.0" encoding="utf-8" ?>
<svg xmlns="http://www.w3.org/2000/svg" xmlns:xlink="http://www.w3.org/1999/xlink" width="24.5" height="32" viewBox="0 0 24.5 32">
	<path transform="matrix(1 0 0 1 0 0)" d="M24.5 22.5L24.5 1.5C24.5 0.66875 23.9148 0 23.1875 0L5.25 0C2.35156 0 0 2.6875 0 6L0 26C0 29.3125 2.35156 32 5.25 32L23.1875 32C23.9148 32 24.5 31.3312 24.5 30.5L24.5 29.5C24.5 29.0312 24.3086 28.6063 24.0133 28.3312C23.7836 27.3687 23.7836 24.625 24.0133 23.6625C24.3086 23.3937 24.5 22.9687 24.5 22.5ZM7 8.375C7 8.16875 7.14766 8 7.32812 8L18.9219 8C19.1023 8 19.25 8.16875 19.25 8.375L19.25 9.625C19.25 9.83125 19.1023 10 18.9219 10L7.32812 10C7.14766 10 7 9.83125 7 9.625L7 8.375ZM7 12.375C7 12.1687 7.14766 12 7.32812 12L18.9219 12C19.1023 12 19.25 12.1687 19.25 12.375L19.25 13.625C19.25 13.8313 19.1023 14 18.9219 14L7.32812 14C7.14766 14 7 13.8313 7 13.625L7 12.375ZM20.8578 28L5.25 28C4.28203 28 3.5 27.1063 3.5 26C3.5 24.9 4.2875 24 5.25 24L20.8578 24C20.7539 25.0688 20.7539 26.9312 20.8578 28Z" fill-rule="nonzero" fill="rgb(57, 71, 213)"/>
</svg>
