<?xml version="1.0" encoding="utf-8" ?>
<svg xmlns="http://www.w3.org/2000/svg" xmlns:xlink="http://www.w3.org/1999/xlink" width="32" height="22.1235" viewBox="0 0 32 22.1235">
	<path transform="matrix(1 0 0 1 0 8.13007e-05)" d="M23.1111 7.90123C23.1111 3.5358 17.9389 0 11.5556 0C5.17222 0 0 3.5358 0 7.90123C0 9.59506 0.783333 11.1556 2.11111 12.4444C1.36667 13.9358 0.138889 15.121 0.122222 15.1358C4.47035e-08 15.2494 -0.0333333 15.4173 0.0388889 15.5654C0.111111 15.7136 0.266667 15.8025 0.444444 15.8025C2.47778 15.8025 4.16111 15.1951 5.37222 14.5679C7.16111 15.3432 9.27778 15.8025 11.5556 15.8025C17.9389 15.8025 23.1111 12.2667 23.1111 7.90123ZM29.8889 18.7654C31.2167 17.4815 32 15.916 32 14.2222C32 10.9185 29.0278 8.08889 24.8167 6.90864C24.8667 7.23457 24.8889 7.56543 24.8889 7.90123C24.8889 13.1309 18.9056 17.3827 11.5556 17.3827C10.9556 17.3827 10.3722 17.3432 9.79445 17.2889C11.5444 20.1284 15.6556 22.1235 20.4444 22.1235C22.7222 22.1235 24.8389 21.6691 26.6278 20.8889C27.8389 21.5161 29.5222 22.1235 31.5556 22.1235C31.7333 22.1235 31.8944 22.0296 31.9611 21.8864C32.0333 21.7432 32 21.5753 31.8778 21.4568C31.8611 21.442 30.6333 20.2617 29.8889 18.7654Z" fill-rule="nonzero" fill="rgb(57, 71, 213)"/>
</svg>
