<?xml version="1.0" encoding="utf-8" ?>
<svg xmlns="http://www.w3.org/2000/svg" xmlns:xlink="http://www.w3.org/1999/xlink" width="24.5" height="32" viewBox="0 0 24.5 32">
	<path transform="matrix(1 0 0 1 0 0)" d="M12.25 16C16.1164 16 19.25 12.4187 19.25 8C19.25 3.58125 16.1164 0 12.25 0C8.38359 0 5.25 3.58125 5.25 8C5.25 12.4187 8.38359 16 12.25 16ZM17.15 18L16.2367 18C15.0227 18.6375 13.6719 19 12.25 19C10.8281 19 9.48281 18.6375 8.26328 18L7.35 18C3.29219 18 0 21.7625 0 26.4L0 29C0 30.6562 1.17578 32 2.625 32L21.875 32C23.3242 32 24.5 30.6562 24.5 29L24.5 26.4C24.5 21.7625 21.2078 18 17.15 18Z" fill-rule="nonzero" fill="rgb(57, 71, 213)"/>
</svg>
