<?xml version="1.0" encoding="utf-8" ?>
<svg xmlns="http://www.w3.org/2000/svg" xmlns:xlink="http://www.w3.org/1999/xlink" width="20" height="20" viewBox="0 0 20 20">
	<defs>
		<clipPath id="clipPath1503282309">
			<path transform="matrix(1 0 0 1 0 0)" d="M0 0L20 0L20 20L0 20L0 0Z" fill-rule="nonzero"/>
		</clipPath>
	</defs>
	<g clip-path="url(#clipPath1503282309)">
		<defs>
			<clipPath id="clipPath6284403290">
				<path transform="matrix(1 0 0 1 0 0)" d="M0 0L20 0L20 20L0 20L0 0Z" fill-rule="nonzero"/>
			</clipPath>
		</defs>
		<g clip-path="url(#clipPath6284403290)">
			<path transform="matrix(1 0 0 1 3.75 6.875)" d="M10.9375 -0.625L9.375 -0.625C9.02983 -0.625 8.75 -0.345175 8.75 0C8.75 0.345175 9.02983 0.625 9.375 0.625L10.9375 0.625Q11.3258 0.625 11.6004 0.899587Q11.875 1.17418 11.875 1.5625L11.875 9.6875Q11.875 10.0758 11.6004 10.3504Q11.3258 10.625 10.9375 10.625L1.5625 10.625Q1.17418 10.625 0.899588 10.3504Q0.625 10.0758 0.625 9.6875L0.625 1.5625Q0.625 1.17417 0.899587 0.899587Q1.17417 0.625 1.5625 0.625L3.125 0.625C3.47018 0.625 3.75 0.345175 3.75 0C3.75 -0.345175 3.47018 -0.625 3.125 -0.625L1.5625 -0.625Q0.656408 -0.625 0.0157039 0.0157039Q-0.625 0.656408 -0.625 1.5625L-0.625 9.6875Q-0.625 10.5936 0.0157036 11.2343Q0.656408 11.875 1.5625 11.875L10.9375 11.875Q11.8436 11.875 12.4843 11.2343Q13.125 10.5936 13.125 9.6875L13.125 1.5625Q13.125 0.656408 12.4843 0.0157034Q11.8436 -0.625 10.9375 -0.625Z" fill-rule="evenodd" fill="rgb(37, 99, 235)"/>
			<path transform="matrix(1 0 0 1 6.875 1.875)" d="M3.125 -0.625C2.77982 -0.625 2.5 -0.345175 2.5 0L2.5 10.3661L0.441942 8.30806C0.197866 8.06398 -0.197866 8.06398 -0.441942 8.30806C-0.686017 8.55213 -0.686017 8.94787 -0.441942 9.19194L2.68306 12.3169Q2.72659 12.3605 2.77777 12.3947Q2.82895 12.4289 2.88582 12.4524Q2.94269 12.476 3.00307 12.488Q3.06344 12.5 3.125 12.5Q3.18656 12.5 3.24693 12.488Q3.30731 12.476 3.36418 12.4524Q3.42105 12.4289 3.47223 12.3947Q3.52341 12.3605 3.56694 12.3169L6.69194 9.19194C6.93602 8.94787 6.93602 8.55213 6.69194 8.30806C6.44787 8.06398 6.05213 8.06398 5.80806 8.30806L3.75 10.3661L3.75 0C3.75 -0.345175 3.47018 -0.625 3.125 -0.625Z" fill-rule="evenodd" fill="rgb(37, 99, 235)"/>
		</g>
	</g>
</svg>
