<?xml version="1.0" encoding="utf-8" ?>
<svg xmlns="http://www.w3.org/2000/svg" xmlns:xlink="http://www.w3.org/1999/xlink" width="20" height="20" viewBox="0 0 20 20">
	<defs>
		<clipPath id="clipPath1207964255">
			<path transform="matrix(1 0 0 1 0 0)" d="M0 0L20 0L20 20L0 20L0 0Z" fill-rule="nonzero"/>
		</clipPath>
	</defs>
	<g clip-path="url(#clipPath1207964255)">
		<path transform="matrix(1 0 0 1 4.375 1.875)" d="M5.625 0.625Q4.6022 0.625 3.66943 1.0006Q2.77092 1.36241 2.07878 2.021Q1.38997 2.6764 1.01326 3.52336Q0.625 4.39629 0.625 5.35156Q0.625 7.39237 2.59388 10.9477Q3.85923 13.2326 5.6293 15.6239Q5.62957 15.6242 5.625 15.6242Q5.62043 15.6242 5.61773 15.6279Q7.39085 13.2335 8.65614 10.949Q10.625 7.39412 10.625 5.35156Q10.625 4.39629 10.2367 3.52336Q9.86003 2.6764 9.17122 2.021Q8.47908 1.36241 7.58057 1.00061Q6.6478 0.625 5.625 0.625ZM5.625 -0.625Q6.89002 -0.625 8.04748 -0.158918Q9.16764 0.292141 10.0329 1.11543Q10.9014 1.9418 11.3789 3.01537Q11.875 4.13084 11.875 5.35156Q11.875 7.71716 9.74962 11.5546Q8.44442 13.9112 6.62836 16.3635Q6.25664 16.8742 5.625 16.8742Q4.99336 16.8742 4.62461 16.3676Q2.80557 13.9102 1.50036 11.5533Q-0.625 7.71537 -0.625 5.35156Q-0.625 4.13084 -0.128861 3.01537Q0.348645 1.9418 1.21712 1.11543Q2.08237 0.29214 3.20252 -0.158918Q4.35998 -0.625 5.625 -0.625Z" fill-rule="nonzero" fill="rgb(75, 85, 99)"/>
		<path transform="matrix(1 0 0 1 8.125 5.625)" d="M1.875 -0.625Q2.38321 -0.625 2.8483 -0.428281Q3.29706 -0.238473 3.64277 0.107233Q3.98847 0.452939 4.17828 0.901695Q4.375 1.36679 4.375 1.875Q4.375 2.38321 4.17828 2.8483Q3.98847 3.29706 3.64277 3.64277Q3.29706 3.98847 2.8483 4.17828Q2.38321 4.375 1.875 4.375Q1.36679 4.375 0.901695 4.17828Q0.452939 3.98847 0.107233 3.64277Q-0.238473 3.29706 -0.428281 2.8483Q-0.625 2.38321 -0.625 1.875Q-0.625 1.36679 -0.428281 0.901695Q-0.238473 0.452939 0.107233 0.107233Q0.452939 -0.238473 0.901695 -0.428281Q1.36679 -0.625 1.875 -0.625ZM1.875 0.625Q1.35723 0.625 0.991117 0.991117Q0.625 1.35723 0.625 1.875Q0.625 2.39277 0.991117 2.75888Q1.35723 3.125 1.875 3.125Q2.39277 3.125 2.75888 2.75888Q3.125 2.39277 3.125 1.875Q3.125 1.35723 2.75888 0.991117Q2.39277 0.625 1.875 0.625Z" fill-rule="nonzero" fill="rgb(75, 85, 99)"/>
	</g>
</svg>
